<?xml version="1.0" encoding="UTF-8" standalone="no"?>
<svg
   xmlns:dc="http://purl.org/dc/elements/1.1/"
   xmlns:cc="http://creativecommons.org/ns#"
   xmlns:rdf="http://www.w3.org/1999/02/22-rdf-syntax-ns#"
   xmlns:svg="http://www.w3.org/2000/svg"
   xmlns="http://www.w3.org/2000/svg"
   id="svg8"
   version="1.1"
   viewBox="0 0 210 297"
   height="297mm"
   width="210mm">
  <defs
     id="defs2" />
  <metadata
     id="metadata5">
    <rdf:RDF>
      <cc:Work
         rdf:about="">
        <dc:format>image/svg+xml</dc:format>
        <dc:type
           rdf:resource="http://purl.org/dc/dcmitype/StillImage" />
        <dc:title></dc:title>
      </cc:Work>
    </rdf:RDF>
  </metadata>
  <g
     id="layer1">
    <path
       id="rect815"
       d="m 3.436599,3.4673756 c 1.5982247,0.5231593 3.1868106,1.15135 4.7593931,1.8507523 1.464462,0.086528 2.6860229,1.3017759 4.1048489,1.1283594 0.901696,0.5476885 1.783409,-0.3791393 2.737236,-0.00837 0.871218,-0.2729751 1.404569,-0.527151 2.263671,-0.063094 1.418392,0.9186 2.724977,-0.8119078 3.965186,-0.9436376 1.16313,0.2638975 2.32362,-0.4620618 3.357974,-0.7299187 1.446205,0.07069 2.592116,-1.6122016 4.10548,-1.0186865 1.255539,-0.7381147 2.637384,-0.5184595 3.971521,-0.9957285 0.908727,-0.6178637 1.890403,-1.3221203 2.956679,-1.4249366 1.565994,0.3663275 3.420526,0.4317385 4.89301,0.8480835 1.345466,0.7535851 2.92434,0.1923703 4.033785,1.5484324 1.326431,0.4914195 2.844646,-0.774857 4.201458,-0.3343946 0.870117,0.2925469 1.786027,-0.1397066 2.666555,0.5173651 1.160465,0.098374 2.427632,-0.1576046 3.535058,-0.2601632 1.275908,-0.039273 2.744565,0.040561 3.536205,1.5532991 0.696159,0.9864639 1.930682,1.2091639 2.805181,1.4990392 1.366361,0.083823 2.852001,0.9329503 4.159764,-0.087558 0.984049,-0.7469796 2.064102,-0.088781 2.97298,-0.8839371 0.855502,-0.347979 1.793962,0.1771118 2.718713,0.091679 0.845544,0.4337344 1.813328,0.3104449 2.686643,0.8363791 1.180855,0.2362136 1.943358,-1.0158216 3.038626,-0.9001548 0.791061,-0.5700931 1.68087,-0.9447578 2.511266,-1.3265239 0.646057,-1.2448569 2.030755,-1.7001009 3.201917,-1.5492564 1.443963,0.1057778 2.503812,1.8360735 3.953695,1.5345389 0.964859,0.083824 1.948865,0.330918 2.905816,0.2743272 1.592274,0.4894882 3.126325,-0.7258177 4.722954,0.1023015 1.127754,-0.3351028 2.143152,0.09052 3.259497,-0.5243827 1.604897,-0.1880566 3.177409,-0.207049 4.770969,-0.709935 1.10818,-0.6624799 2.53692,-0.2138089 3.76114,-0.020602 1.03694,0.1766613 1.78114,-0.5473666 2.79339,-0.023821 0.84485,0.3797188 1.85126,-0.3356176 2.67073,-0.7478295 1.32533,-0.7338845 2.80006,-1.76863406 4.31122,-1.1556375 1.1323,-0.026396 2.54042,-0.2005466 3.10486,-1.29896245 0.8343,0.50384511 1.57134,0.89671035 2.47797,0.57505043 1.5078,0.54022032 2.7623,-0.70246671 4.1967,-0.819408230668 C 126.33391,0.9348556 127.19651,1.6073337 128.17006,2.109962 c 0.99969,1.6077723 2.8337,1.249402 4.22503,1.6353981 1.41142,0.3610482 3.0489,0.1195553 4.41278,0.2855294 1.26794,-0.3773367 2.61628,0.1957823 3.56644,1.2314397 1.23842,0.5743421 2.49971,0.7355582 3.74379,1.0900138 1.70727,0.6064039 3.48944,-0.1892156 5.24248,0.5824543 1.46185,0.5179444 2.28479,-1.1722542 3.49259,-1.698742 1.39677,-0.1551581 2.53007,-1.3622553 3.98592,-1.6538495 1.32525,-0.1145337 2.58458,-0.2180581 3.54859,-1.375724 1.36615,-0.4497008 2.90276,-0.4457735 4.29848,-0.2649918 1.27837,0.7188515 2.92084,-0.1834857 4.31543,-0.3074834 0.70897,-0.90497045 1.58196,-0.68958406 2.4459,-0.82779703 1.35768,-1.24691045 2.82178,0.44364893 4.26484,0.46695483 1.62407,-0.69790853 2.75299,1.4573523 4.23426,1.7201811 1.19247,-0.4842089 2.23833,0.8383235 3.50041,0.4195061 1.10007,0.090327 2.19128,0.7508557 3.12847,1.2668366 1.31367,0.5301769 2.14421,2.0242262 3.56161,2.0798255 1.22422,0.9622566 2.9498,0.8422956 4.20851,0.3046506 1.58377,-0.1153707 3.4589,0.4498939 4.75605,-0.9222763 0.86958,0.5836776 1.78092,-0.3805549 2.6778,0.4957332 1.46268,1.0092419 2.09178,-2.2185729 3.70151,-1.376406 0.90974,-0.7294422 2.13606,-2.0541057 3.10508,-1.548902 -0.19812,2.0614837 1.36075,3.4485897 1.07914,5.4678524 0.73771,2.5091684 -1.1054,4.0930754 -1.74348,6.1533364 0.35318,1.358115 0.45631,3.117877 -0.27259,4.419055 0.19044,1.556794 0.0577,3.140951 -0.46488,4.576344 0.42706,1.559737 -0.81238,3.514792 0.49054,4.908473 0.78812,1.514586 0.29503,3.216175 0.61109,4.880588 -0.34671,1.414025 0.8114,2.709909 0.5336,4.007295 -0.049,1.447483 -0.49,2.895706 -0.89813,4.267123 -0.33571,1.517992 -0.45396,3.089099 0.24959,4.49539 -0.35465,2.03579 2.11388,2.602375 1.80171,4.739911 -0.3126,1.16346 -0.4586,2.308701 -0.83214,3.486137 0.20077,1.749655 0.54458,3.51424 0.46346,5.236835 -0.0375,1.446715 -1.52557,2.382556 -0.89227,3.886959 0.12295,1.130923 0.24434,2.12707 -0.22675,3.186322 0.18153,1.508863 1.54694,2.996352 0.682,4.688663 0.28708,1.431857 0.21234,2.622338 -0.40776,3.852941 0.50398,1.904033 -0.87055,3.86628 0.13255,5.637568 0.0685,0.975577 0.49063,1.816268 0.67082,2.519727 0.0151,1.56669 -0.98674,2.537407 -1.7178,3.551818 -0.1109,2.333133 -0.54807,4.641028 -0.34223,7.050671 -0.49919,1.380823 0.70513,2.159438 0.73553,3.527153 0.58533,2.092815 -0.23676,4.202395 0.15498,6.188735 0.51572,0.83921 0.2381,2.08824 0.95483,2.76813 0.32653,1.47521 0.23201,2.86335 -0.0198,4.2891 0.0339,1.01731 -0.13723,2.19159 -0.39763,3.00635 -0.15815,1.56372 -0.59551,3.29956 -0.50388,4.83394 0.037,1.01332 0.169,2.10353 0.24521,3.07135 0.63524,1.0632 0.74599,2.27444 0.20097,3.43172 -0.43021,1.19588 -1.05556,2.3069 -0.3057,3.47247 -0.0198,1.50215 0.0187,3.10924 -0.43066,4.47416 -0.24932,2.05212 1.13677,3.49178 1.31435,5.46945 0.69158,1.32402 -0.32758,2.74746 -0.56865,4.13799 -0.29935,1.15242 0.33458,2.04275 0.44724,3.19115 -0.10521,1.41239 0.22596,2.77473 -0.0172,4.12133 -0.47898,1.18508 -0.50804,2.14128 -0.37617,3.41994 0.16681,0.98233 1.03047,1.73449 0.73261,2.95012 -0.16712,1.17587 -0.0647,2.55985 -0.50971,3.63823 -0.50654,1.62775 -0.54663,3.37941 -0.6696,5.09571 -0.47409,1.42485 -0.89672,2.93565 -1.86272,4.03078 -0.62444,1.13175 -1.09029,2.15141 -0.72079,3.42393 -0.56286,1.58379 1.63299,3.28566 0.14486,4.66797 0.0511,1.65747 -0.55457,3.74581 -0.0529,5.57202 0.75036,1.36051 1.51861,2.69845 1.28889,4.39941 0.2341,1.76002 -0.36033,3.58242 0.19038,5.29754 0.34317,1.19758 1.20489,2.03279 1.01929,3.45993 -0.59221,1.50516 -1.01534,3.03921 -1.47545,4.56229 0.32069,1.30998 -0.58069,2.24188 -0.79985,3.35127 0.62575,1.30593 0.2077,2.92 -0.18722,4.22181 -0.50528,0.96538 -0.48453,2.38546 -0.58098,3.61812 0.009,2.02883 1.53196,3.34456 1.35669,5.41104 0.24453,2.25817 -0.74392,4.49347 0.2558,6.67352 0.0929,1.33791 1.29454,2.4445 1.35958,3.9434 -0.21861,1.43049 0.70617,2.95033 -0.14272,4.23854 0.0199,1.21444 -0.45938,2.25959 -0.61843,3.37067 -0.94512,1.64606 0.7767,3.48768 -0.29315,5.12796 -0.3416,1.10915 -0.30624,2.19204 -0.99345,3.0553 0.21459,0.89912 1.21242,1.83087 1.12104,3.12551 0.38813,1.72125 -0.65183,3.44757 -0.0542,5.26128 -0.90562,2.04677 1.46955,3.48776 0.71522,5.57226 -0.73601,1.8533 1.37312,3.64731 0.59625,5.61056 -0.26154,1.79469 -0.19019,3.50861 0.54935,5.11711 -0.22189,1.27794 0.13552,2.54066 -0.62396,3.63607 0.0453,1.09716 0.29701,2.09003 0.14412,3.18232 -0.0313,2.23717 0.42616,4.64964 -0.64852,6.63889 -1.2138,1.32206 -0.83577,3.37891 -0.0417,4.86521 0.0864,1.15749 0.5165,1.99346 -0.0501,3.09911 -0.0811,0.75211 0.82797,2.99416 -0.0271,2.48961 -1.02063,-0.91918 -2.31674,-0.20936 -3.39316,0.0457 -1.15195,-0.14344 -2.22808,-0.51968 -3.30973,-0.36581 -0.99822,-0.17808 -1.98456,-0.62926 -3.05933,-0.40921 -1.32214,-0.14376 -1.7519,-1.74012 -2.67769,-2.44845 -1.52887,0.13205 -3.12109,0.11453 -4.61483,-0.15677 -1.13236,-0.84961 -2.39372,0.31219 -3.55124,0.56816 -1.22472,0.28746 -1.72616,2.19286 -3.07235,2.02016 -1.18001,1.52929 -2.92784,0.85903 -4.10747,2.15646 -1.31533,0.30099 -2.21852,1.66696 -3.60201,1.43867 -1.30317,1.62001 -3.32003,0.22333 -4.78009,1.26022 -1.78428,0.33813 -3.60348,-0.94017 -5.42588,-0.99579 -1.09132,-0.2532 -2.21191,0.006 -3.21327,0.0831 -0.90041,-1.042 -1.86234,-1.89484 -3.14066,-2.09635 -1.16912,-0.25264 -2.42637,-0.50713 -3.60164,-1.15663 -1.23891,0.60672 -2.16559,-1.07789 -3.46605,-0.82331 -1.683,0.72168 -3.7221,0.59978 -5.28205,1.67244 -1.18406,-0.31456 -2.12123,0.37258 -3.17295,0.91765 -1.12879,0.56198 -2.16046,0.0766 -3.20134,-0.11525 -0.88734,-0.20685 -1.72121,-0.90128 -2.70938,-0.41853 -1.34244,-0.41803 -2.44706,0.88438 -3.694,0.22101 -1.35436,-0.92929 -2.97492,-1.28905 -4.57628,-1.26741 -0.9495,-0.43309 -1.85717,-0.22907 -2.81511,-0.34915 -0.74589,-0.93771 -1.84263,-0.69957 -2.7253,-0.80352 -0.55201,-1.35977 -1.65148,-0.96442 -2.5815,-1.47785 -0.65751,-0.70141 -1.68572,-0.67147 -2.51789,-0.57647 -2.00677,0.79821 -3.76423,-0.9987 -5.72321,-0.78542 -1.36692,0.47229 -2.37462,1.731 -3.51488,2.3983 -1.37981,0.31283 -2.56793,1.27392 -4.00873,1.42374 -1.69803,0.71985 -3.69593,0.65561 -5.4123,0.81992 -1.149861,-0.0361 -2.168639,0.27355 -2.944458,-0.97215 -1.122486,0.17087 -2.115867,-0.0948 -2.683009,-1.35511 -0.695142,-0.88151 -1.909166,-0.31083 -2.668872,-1.10515 -0.857547,0.27651 -1.620801,0.31133 -2.466043,-0.21298 -1.214665,0.21697 -2.39118,-0.32899 -3.363414,0.92284 -1.636057,0.74891 -3.440816,1.03892 -5.102977,1.80546 -0.91508,0.47692 -1.910541,0.42117 -2.775886,0.668 -1.198991,-0.35043 -2.248674,-0.92894 -3.508189,-0.0503 -1.347192,0.004 -2.657152,0.56599 -4.044941,0.53475 -1.660715,0.7028 -3.227341,2.83911 -5.140835,1.7446 -0.851798,-1.01899 -2.049522,0.53314 -2.875584,-0.69946 -1.129433,-1.2102 -2.789606,-1.56493 -4.158392,-0.53783 -1.932472,0.16667 -3.529806,-1.30004 -5.466334,-1.39863 -1.019618,-0.57969 -2.035168,0.0419 -2.983266,-7e-4 -0.967488,-0.82006 -2.19849,-1.15242 -3.316928,-1.06649 -1.090652,1.05601 -2.50772,1.50454 -3.760594,0.67452 -1.199507,-0.49104 -2.568894,0.27548 -3.688871,-0.89632 -1.448918,0.19952 -2.965479,1.29183 -4.515982,0.39028 -0.822416,0.35571 -2.235394,1.26991 -3.422059,0.96107 -1.262623,0.0756 -2.474953,-0.67169 -3.742892,0.23022 -0.886484,0.4418 -1.89035,0.99127 -2.734971,1.66273 -1.0718,-0.0328 -1.982171,0.19725 -3.051305,-0.31052 -1.829463,-0.45691 -3.984695,0.96394 -5.52993,-0.86594 -0.810328,-0.21735 -1.083489,-1.64002 -2.063777,-0.68782 -0.88238,1.09961 -1.992305,-0.4508 -2.848746,0.61458 -1.227857,0.57665 -2.4434144,0.70231 -3.7287015,0.94501 -1.9437589,0.50732 -3.2299849,-2.21509 -5.0814386,-1.59641 0.1290998,-1.38489 0.4651246,-2.91674 0.3105177,-4.26916 -1.2163346,-0.86289 -0.8159894,-2.74823 -1.105001,-4.1457 0.2551223,-1.51861 -0.6600368,-2.95357 -0.3632531,-4.27885 0.5738502,-1.80284 0.7364639,-3.77745 1.5333882,-5.56064 0.6918186,-1.87504 -0.079859,-4.22405 1.0314009,-5.9276 0.2488106,-2.31682 -2.035803,-4.0138 -1.4317669,-6.42984 0.5590415,-1.85197 -1.2643442,-3.63055 -0.7168252,-5.60709 -0.869288,-1.84807 0.184965,-3.80109 0.4651248,-5.52613 0.2231993,-1.61389 -0.019299,-3.29892 0.6501051,-4.82808 0.00353,-1.28064 -0.1632657,-2.70803 -0.6111508,-3.85321 0.2564783,-2.34706 0.529977,-4.68607 0.2206955,-7.0478 -0.3307043,-1.92077 1.139756,-3.37484 0.4457205,-5.29937 C 3.3764852,229.26939 3.380293,228.1885 2.6869459,227.39705 2.278886,226.43163 2.5264447,224.9519 1.6596082,224.08487 0.87117573,222.58994 0.20754502,220.67943 0.62843668,218.8947 c -0.3162034,-1.17996 -1.10243986,-2.60271 -0.22017396,-3.83199 0.21198459,-1.26037 0.55456088,-2.62021 1.17770898,-3.56911 0.6563907,-2.47074 2.390987,-4.80468 1.3971579,-7.54585 0.054613,-1.97193 -1.1027163,-3.90184 -0.087735,-5.79246 0.303789,-1.38348 0.7427494,-2.7716 0.6721017,-4.22235 -0.9935316,-1.25542 0.3558463,-2.41108 0.197901,-3.82586 0.242134,-1.03729 -0.07673,-2.3579 -0.4106157,-3.2983 -0.07626,-0.74734 0.3659655,-1.86666 0.2053601,-2.78495 -0.045902,-1.69599 0.7443246,-3.3974 0.3263227,-5.19728 -0.1029148,-1.63273 0.7955054,-2.95999 0.5219807,-4.61657 0.6002594,-1.3585 0.028167,-2.91066 0.4748789,-4.36917 0.1684297,-1.3482 -0.6320466,-2.11439 -0.9157012,-3.26792 -0.2851152,-1.18266 -0.6576478,-2.29182 -0.1457917,-3.35478 0.4266295,-1.42937 -0.1143381,-2.80928 0.3955412,-4.17516 0.091595,-1.42652 0.7389362,-2.86778 0.5352088,-4.41846 0.2713966,-1.29767 -0.269884,-2.64062 0.3598626,-3.9432 -0.058629,-1.44569 1.9168435,-2.02226 0.8229269,-3.3013 -0.044859,-1.3251 -0.3629402,-2.46504 -0.5947096,-3.66824 -0.5476444,-1.11819 -1.7042277,-2.12615 -1.9053001,-3.32654 1.2353525,-1.13735 0.3726944,-3.16198 0.8095788,-4.69381 -0.1470434,-1.30294 -0.4064429,-2.57455 -0.7755068,-3.79554 -0.2303976,-1.60925 0.8430769,-2.91808 0.9517191,-4.37829 -0.5179644,-1.33427 -0.6912659,-2.79095 -0.4217264,-4.27626 0.2465678,-1.73594 -0.7791424,-3.26718 -0.9990816,-4.93512 -0.9162648,-1.30308 -1.3116183,-2.86724 -0.1091221,-4.09753 0.2818812,-1.78394 0.2911659,-3.58632 0.1611793,-5.27664 0.049062,-1.53685 -0.7424955,-3.08407 -0.138668,-4.67986 -0.3419712,-1.5366 0.6366372,-3.20709 0.3231931,-4.56102 C 2.6895673,98.465429 1.6356481,97.850353 1.6181478,96.232583 0.69423622,94.705126 1.3086734,92.801884 1.3750229,91.151453 0.71339516,89.996601 1.5657255,88.741103 1.5973876,87.749134 1.214261,86.506491 1.806086,85.37275 1.0458939,84.315499 1.1168336,83.503958 1.0046862,82.359072 1.2922007,81.59012 1.6776225,80.591494 1.9028092,79.53049 2.2264664,78.42109 1.4637966,76.69384 2.5403226,74.97196 2.4135179,73.284696 2.1364356,71.454662 2.6062548,69.515676 3.3130805,67.892454 4.4262239,66.370173 3.3641988,64.349995 3.3021266,62.644969 3.5234482,60.872183 3.5571445,58.910053 3.9202202,57.232865 3.5462741,55.715619 3.7418277,54.164469 4.0229264,52.575844 4.2088823,50.958074 2.6521206,50.313306 2.5251593,48.70695 2.1438061,47.448497 3.030657,45.845591 2.3731082,44.457686 1.861612,42.806284 3.6586926,41.909484 3.0510626,40.095326 3.3142176,38.691435 3.1000944,37.311333 3.2885021,36.004555 3.4401356,35.21867 2.7685033,34.236262 2.6940428,33.403527 2.1311725,32.29868 1.9049113,31.256476 2.2317348,29.865223 2.0985142,28.122753 1.3750333,26.452931 1.5593826,24.707582 0.94930626,23.824727 0.22894464,22.515129 0.11645822,21.369753 -0.08457245,19.986722 -0.07116692,18.605713 0.52717837,17.341336 0.38107383,15.455419 1.0458208,13.553098 2.1686871,12.268886 3.05631,11.172762 3.3299913,9.5820121 3.5976793,8.0690925 4.0286903,6.4871823 3.3342111,5.0048182 3.4374911,3.4676397 Z"
       style="fill:#e7e7e7;fill-opacity:1;stroke:none;stroke-width:70.87657166;stroke-linecap:square;stroke-linejoin:miter;stroke-miterlimit:4;stroke-dasharray:none;stroke-opacity:1" />
  </g>
</svg>
